<svg width="730" height="144" xmlns="http://www.w3.org/2000/svg" xmlns:xlink="http://www.w3.org/1999/xlink" overflow="hidden"><defs><filter id="fx0" x="-10%" y="-10%" width="120%" height="120%" filterUnits="userSpaceOnUse" primitiveUnits="userSpaceOnUse"><feComponentTransfer color-interpolation-filters="sRGB"><feFuncR type="discrete" tableValues="0 0"/><feFuncG type="discrete" tableValues="0 0"/><feFuncB type="discrete" tableValues="0 0"/><feFuncA type="linear" slope="0.4" intercept="0"/></feComponentTransfer><feGaussianBlur stdDeviation="1.28061 1.28061"/></filter><clipPath id="clip1"><rect x="277" y="257" width="730" height="144"/></clipPath><clipPath id="clip2"><rect x="37" y="33" width="521" height="63"/></clipPath><clipPath id="clip3"><rect x="0" y="0" width="593" height="132"/></clipPath></defs><g clip-path="url(#clip1)" transform="translate(-277 -257)"><g clip-path="url(#clip2)" filter="url(#fx0)" transform="translate(348 269)"><g clip-path="url(#clip3)"><path d="M30.0186-38.4883 30.0186-30.5083 27.1665-30.5083C26.7056-32.1792 26.1198-33.5092 25.4092-34.4983 24.6986-35.4874 23.8727-36.1932 22.9316-36.6157 21.9906-37.0382 20.8574-37.2495 19.5322-37.2495 17.554-37.2495 15.7919-36.5917 14.2458-35.2761 12.6998-33.9605 11.485-31.9823 10.6016-29.3416 9.7181-26.7008 9.27637-23.5078 9.27637-19.7627 9.27637-15.9984 9.64128-12.7862 10.3711-10.1262 11.1009-7.46623 12.1764-5.45923 13.5977-4.10522 15.0189-2.75122 16.7666-2.07422 18.8408-2.07422 20.4157-2.07422 21.7025-2.29989 22.7012-2.75122 23.6999-3.20256 24.5401-3.91797 25.2219-4.89746 25.9037-5.87695 26.5519-7.31738 27.1665-9.21875L30.0186-9.21875 30.0186-0.979492C28.2132-0.499349 26.3647-0.139242 24.4729 0.10083 22.5811 0.340902 20.5021 0.460938 18.2358 0.460938 13.3576 0.460938 9.67008-1.19076 7.17334-4.49414 4.67659-7.79753 3.42822-12.7238 3.42822-19.2729 3.42822-23.383 4.07642-26.984 5.3728-30.0762 6.66919-33.1683 8.57536-35.5594 11.0913-37.2495 13.6073-38.9396 16.613-39.7847 20.1084-39.7847 21.8561-39.7847 23.4694-39.6934 24.9482-39.511 26.4271-39.3285 28.1172-38.9876 30.0186-38.4883ZM52.4458-4.11963 52.0137-4.23486C50.3428-2.52555 48.7727-1.31559 47.3035-0.60498 45.8342 0.105632 44.2738 0.460938 42.6221 0.460938 41.1624 0.460938 39.8756 0.177653 38.7617-0.388916 37.6478-0.955485 36.7931-1.75252 36.1978-2.78003 35.6024-3.80754 35.3047-4.99349 35.3047-6.33789 35.3047-9.14193 36.6923-11.3074 39.4675-12.8342 42.2428-14.3611 46.4056-15.2493 51.9561-15.499L51.9561-17.3716C51.9561-19.369 51.764-20.9438 51.3799-22.0962 50.9958-23.2485 50.3908-24.0936 49.5649-24.6313 48.7391-25.1691 47.6348-25.438 46.252-25.438 44.7539-25.438 43.5487-25.0443 42.6365-24.2568 41.7242-23.4694 41.0376-22.2882 40.5767-20.7134L36.8027-20.7134 36.8027-24.4585C38.6465-25.4188 40.1829-26.1246 41.4121-26.5759 42.6413-27.0273 43.8704-27.3826 45.0996-27.6418 46.3288-27.9011 47.5771-28.0308 48.8447-28.0308 50.7461-28.0308 52.2729-27.7283 53.4253-27.1233 54.5776-26.5183 55.4419-25.5916 56.0181-24.3433 56.5942-23.0949 56.8823-21.2127 56.8823-18.6968L56.8823-8.67139C56.8823-7.25016 56.8919-6.24666 56.9111-5.66089 56.9303-5.07511 56.988-4.53255 57.084-4.0332 57.18-3.53385 57.3241-3.13533 57.5161-2.83765 57.7082-2.53996 57.9915-2.28548 58.366-2.07422 58.7405-1.86296 59.3503-1.64209 60.1953-1.41162L60.1953 0 52.3018 0ZM51.9561-13.1367C48.0573-13.0983 45.138-12.5798 43.1982-11.5811 41.2585-10.5824 40.2886-9.07471 40.2886-7.05811 40.2886-5.96338 40.5094-5.09912 40.9512-4.46533 41.3929-3.83154 41.9499-3.39461 42.6221-3.15454 43.2943-2.91447 44.0913-2.79443 45.0132-2.79443 46.3192-2.79443 47.5051-3.11133 48.571-3.74512 49.637-4.37891 50.4676-5.18555 51.063-6.16504 51.6584-7.14453 51.9561-8.11442 51.9561-9.07471ZM72.2682-0.864258 72.2682 5.21436C72.2682 6.46273 72.3114 7.39421 72.3979 8.00879 72.4843 8.62337 72.6379 9.10832 72.8588 9.46362 73.0797 9.81893 73.3966 10.1118 73.8095 10.3423 74.2224 10.5728 74.8898 10.784 75.8117 10.9761L75.8117 12.3877 64.0578 12.3877 64.0578 10.9761C64.7492 10.784 65.311 10.5872 65.7431 10.3855 66.1752 10.1838 66.5065 9.88615 66.737 9.49243 66.9675 9.09871 67.1211 8.56575 67.1979 7.89355 67.2747 7.22135 67.3132 6.32829 67.3132 5.21436L67.3132-19.5034C67.3132-20.8862 67.2939-21.8705 67.2555-22.4563 67.2171-23.0421 67.1403-23.527 67.0251-23.9111 66.9098-24.2952 66.7418-24.6121 66.5209-24.8618 66.3-25.1115 66.0024-25.3228 65.6279-25.4956 65.2533-25.6685 64.634-25.8413 63.7697-26.0142L63.7697-27.541 70.5397-27.8003 72.297-27.8003 71.9225-23.1045 72.3547-22.9893C73.5454-24.1992 74.4865-25.0779 75.1779-25.6252 75.8693-26.1726 76.5847-26.6287 77.3241-26.9937 78.0636-27.3586 78.7742-27.6178 79.456-27.7715 80.1378-27.9251 80.8628-28.002 81.631-28.002 84.8-28.002 87.2343-26.816 88.934-24.4441 90.6337-22.0722 91.4836-18.6007 91.4836-14.0298 91.4836-10.8608 91.0034-8.19604 90.0431-6.0354 89.0828-3.87476 87.6856-2.25187 85.8515-1.16675 84.0173-0.0816244 81.8327 0.460938 79.2975 0.460938 77.8763 0.460938 76.5895 0.340902 75.4372 0.10083 74.2848-0.139242 73.2285-0.460938 72.2682-0.864258ZM72.2682-10.3711C72.2682-8.52734 72.3835-7.10612 72.6139-6.10742 72.8444-5.10872 73.2525-4.29728 73.8383-3.6731 74.4241-3.04891 75.1155-2.58317 75.9125-2.27588 76.7096-1.96859 77.7611-1.81494 79.0671-1.81494 81.391-1.81494 83.1387-2.78003 84.3102-4.71021 85.4818-6.64038 86.0676-9.48763 86.0676-13.252 86.0676-20.7806 83.8685-24.5449 79.4704-24.5449 78.3949-24.5449 77.4682-24.3769 76.6904-24.0408 75.9125-23.7047 75.1395-23.1621 74.3713-22.4131 73.603-21.6641 73.0605-20.939 72.7436-20.238 72.4267-19.537 72.2682-18.7832 72.2682-17.9766ZM95.3993-26.1006C96.3595-26.2542 97.1374-26.5231 97.7327-26.9072 98.3281-27.2913 98.7939-27.7859 99.13-28.3909 99.4661-28.9958 99.7301-29.7545 99.9222-30.6667 100.114-31.579 100.316-32.909 100.527-34.6567L104.618-34.6567 104.618-27.541 113.923-27.541 113.923-24.6313 104.618-24.6313 104.618-11.8115C104.618-9.94857 104.695-8.46492 104.848-7.3606 105.002-6.25627 105.29-5.39201 105.713-4.76782 106.135-4.14364 106.615-3.6971 107.153-3.42822 107.691-3.15934 108.382-3.0249 109.227-3.0249 109.996-3.0249 110.716-3.18335 111.388-3.50024 112.06-3.81714 112.723-4.27327 113.376-4.86865L114.672-3.31299C113.309-1.98779 112.017-1.02751 110.797-0.432129 109.578 0.163249 108.315 0.460938 107.009 0.460938 104.532 0.460938 102.688-0.273682 101.478-1.74292 100.268-3.21216 99.6629-5.51204 99.6629-8.64258L99.6629-24.6313 95.3993-24.6313ZM125.2-38.834 125.2-33.2451 119.9-33.2451 119.9-38.834ZM116.961-1.41162C117.71-1.64209 118.243-1.84375 118.56-2.0166 118.877-2.18945 119.146-2.42952 119.367-2.73682 119.587-3.04411 119.76-3.51465 119.885-4.14844 120.01-4.78223 120.072-5.77132 120.072-7.11572L120.072-19.6763C120.072-20.9054 120.053-21.8945 120.015-22.6436 119.976-23.3926 119.842-23.9928 119.611-24.4441 119.381-24.8954 119.031-25.2315 118.56-25.4524 118.089-25.6733 117.422-25.8605 116.558-26.0142L116.558-27.541 123.27-27.8003 125.028-27.8003 125.028-7.20215C125.028-5.55046 125.104-4.40291 125.258-3.75952 125.412-3.11613 125.705-2.62638 126.137-2.29028 126.569-1.95418 127.275-1.6613 128.254-1.41162L128.254 0 116.961 0ZM145.826 0.460938C141.831 0.460938 138.782-0.715413 136.679-3.06812 134.576-5.42082 133.525-8.90186 133.525-13.5112 133.525-16.6802 134.077-19.3594 135.181-21.5488 136.286-23.7383 137.798-25.366 139.719-26.4319 141.639-27.4978 143.829-28.0308 146.287-28.0308 150.397-28.0308 153.508-26.8352 155.621-24.4441 157.734-22.053 158.79-18.62 158.79-14.145 158.79-10.9569 158.262-8.26807 157.206-6.07861 156.149-3.88916 154.651-2.25187 152.711-1.16675 150.772-0.0816244 148.477 0.460938 145.826 0.460938ZM138.97-14.1162C138.97-10.1598 139.599-7.12052 140.857-4.99829 142.115-2.87606 143.915-1.81494 146.258-1.81494 147.545-1.81494 148.64-2.12703 149.542-2.75122 150.445-3.37541 151.18-4.21566 151.746-5.27197 152.313-6.32829 152.721-7.55265 152.971-8.94507 153.22-10.3375 153.345-11.7923 153.345-13.3096 153.345-16.1328 153.033-18.4759 152.409-20.3389 151.785-22.2018 150.935-23.5702 149.859-24.4441 148.784-25.318 147.555-25.7549 146.172-25.7549 143.848-25.7549 142.067-24.7466 140.828-22.73 139.589-20.7134 138.97-17.8421 138.97-14.1162ZM192.521 0 181.17 0 181.17-1.41162C181.919-1.64209 182.457-1.84375 182.783-2.0166 183.11-2.18945 183.384-2.42952 183.604-2.73682 183.825-3.04411 183.998-3.51945 184.123-4.16284 184.248-4.80623 184.31-5.78092 184.31-7.08691L184.31-14.6348C184.31-15.9792 184.272-17.1987 184.195-18.2935 184.118-19.3882 183.989-20.2861 183.806-20.9871 183.624-21.6881 183.403-22.2354 183.143-22.6292 182.884-23.0229 182.577-23.359 182.222-23.6375 181.866-23.9159 181.458-24.1368 180.997-24.3 180.536-24.4633 179.931-24.5449 179.182-24.5449 178.433-24.5449 177.723-24.3961 177.05-24.0984 176.378-23.8007 175.639-23.2869 174.832-22.5571 174.026-21.8273 173.44-21.1071 173.075-20.3965 172.71-19.6859 172.527-18.8696 172.528-17.9478L172.528-7.20215C172.527-5.55046 172.604-4.40291 172.758-3.75952 172.912-3.11613 173.204-2.62638 173.637-2.29028 174.069-1.95418 174.775-1.6613 175.754-1.41162L175.754 0 164.461 0 164.461-1.41162C165.21-1.64209 165.743-1.84375 166.06-2.0166 166.377-2.18945 166.646-2.42952 166.867-2.73682 167.087-3.04411 167.26-3.51465 167.385-4.14844 167.51-4.78223 167.572-5.77132 167.572-7.11572L167.572-19.6763C167.572-20.9054 167.553-21.8945 167.515-22.6436 167.476-23.3926 167.342-23.9928 167.111-24.4441 166.881-24.8954 166.531-25.2315 166.06-25.4524 165.589-25.6733 164.922-25.8605 164.058-26.0142L164.058-27.541 170.799-27.8003 172.556-27.8003 172.239-23.1045 172.643-22.9893C174.064-24.4297 175.212-25.4572 176.085-26.0718 176.959-26.6864 177.843-27.1617 178.736-27.4978 179.629-27.8339 180.575-28.002 181.573-28.002 182.611-28.002 183.537-27.8819 184.353-27.6418 185.17-27.4018 185.89-27.0321 186.514-26.5327 187.138-26.0334 187.652-25.414 188.055-24.6746 188.459-23.9351 188.761-23.0469 188.963-22.0098 189.164-20.9727 189.265-19.6571 189.265-18.063L189.265-7.20215C189.265-5.87695 189.304-4.91667 189.381-4.32129 189.457-3.72591 189.592-3.26497 189.784-2.93848 189.976-2.61198 190.254-2.3383 190.619-2.11743 190.984-1.89657 191.618-1.6613 192.521-1.41162ZM205.367-38.834 205.367-33.2451 200.066-33.2451 200.066-38.834ZM197.128-1.41162C197.877-1.64209 198.41-1.84375 198.727-2.0166 199.044-2.18945 199.312-2.42952 199.533-2.73682 199.754-3.04411 199.927-3.51465 200.052-4.14844 200.177-4.78223 200.239-5.77132 200.239-7.11572L200.239-19.6763C200.239-20.9054 200.22-21.8945 200.181-22.6436 200.143-23.3926 200.009-23.9928 199.778-24.4441 199.548-24.8954 199.197-25.2315 198.727-25.4524 198.256-25.6733 197.589-25.8605 196.724-26.0142L196.724-27.541 203.437-27.8003 205.194-27.8003 205.194-7.20215C205.194-5.55046 205.271-4.40291 205.425-3.75952 205.578-3.11613 205.871-2.62638 206.303-2.29028 206.735-1.95418 207.441-1.6613 208.421-1.41162L208.421 0 197.128 0ZM241.521 0 230.17 0 230.17-1.41162C230.919-1.64209 231.457-1.84375 231.783-2.0166 232.11-2.18945 232.384-2.42952 232.604-2.73682 232.825-3.04411 232.998-3.51945 233.123-4.16284 233.248-4.80623 233.31-5.78092 233.31-7.08691L233.31-14.6348C233.31-15.9792 233.272-17.1987 233.195-18.2935 233.118-19.3882 232.989-20.2861 232.806-20.9871 232.624-21.6881 232.403-22.2354 232.143-22.6292 231.884-23.0229 231.577-23.359 231.222-23.6375 230.866-23.9159 230.458-24.1368 229.997-24.3 229.536-24.4633 228.931-24.5449 228.182-24.5449 227.433-24.5449 226.723-24.3961 226.05-24.0984 225.378-23.8007 224.639-23.2869 223.832-22.5571 223.026-21.8273 222.44-21.1071 222.075-20.3965 221.71-19.6859 221.527-18.8696 221.528-17.9478L221.528-7.20215C221.527-5.55046 221.604-4.40291 221.758-3.75952 221.912-3.11613 222.205-2.62638 222.637-2.29028 223.069-1.95418 223.775-1.6613 224.754-1.41162L224.754 0 213.461 0 213.461-1.41162C214.21-1.64209 214.743-1.84375 215.06-2.0166 215.377-2.18945 215.646-2.42952 215.867-2.73682 216.087-3.04411 216.26-3.51465 216.385-4.14844 216.51-4.78223 216.572-5.77132 216.572-7.11572L216.572-19.6763C216.572-20.9054 216.553-21.8945 216.515-22.6436 216.476-23.3926 216.342-23.9928 216.111-24.4441 215.881-24.8954 215.531-25.2315 215.06-25.4524 214.589-25.6733 213.922-25.8605 213.058-26.0142L213.058-27.541 219.799-27.8003 221.556-27.8003 221.239-23.1045 221.643-22.9893C223.064-24.4297 224.212-25.4572 225.085-26.0718 225.959-26.6864 226.843-27.1617 227.736-27.4978 228.629-27.8339 229.575-28.002 230.573-28.002 231.611-28.002 232.537-27.8819 233.353-27.6418 234.17-27.4018 234.89-27.0321 235.514-26.5327 236.138-26.0334 236.652-25.414 237.055-24.6746 237.459-23.9351 237.761-23.0469 237.963-22.0098 238.164-20.9727 238.265-19.6571 238.265-18.063L238.265-7.20215C238.265-5.87695 238.304-4.91667 238.381-4.32129 238.457-3.72591 238.592-3.26497 238.784-2.93848 238.976-2.61198 239.254-2.3383 239.619-2.11743 239.984-1.89657 240.618-1.6613 241.521-1.41162ZM271.969-24.6313 266.639-24.833 266.38-24.5161C266.976-23.9207 267.446-23.1093 267.792-22.0818 268.138-21.0543 268.31-19.9451 268.31-18.7544 268.31-15.6239 267.345-13.2087 265.415-11.509 263.485-9.80933 260.743-8.95947 257.19-8.95947 255.596-8.95947 254.223-9.16113 253.071-9.56445 251.611-8.45052 250.881-7.35579 250.881-6.28027 250.881-5.56966 251.02-5.0319 251.299-4.66699 251.577-4.30208 252.038-4.04281 252.682-3.88916 253.325-3.73551 254.3-3.65869 255.606-3.65869L262.52-3.65869C264.556-3.65869 266.217-3.3418 267.504-2.70801 268.791-2.07422 269.708-1.22437 270.255-0.158447 270.802 0.907471 271.076 2.15104 271.076 3.57227 271.076 5.3776 270.557 6.98608 269.52 8.39771 268.483 9.80933 266.985 10.9089 265.026 11.6963 263.067 12.4837 260.782 12.8774 258.17 12.8774 256.23 12.8774 254.458 12.7622 252.855 12.5317 251.251 12.3013 249.878 11.9124 248.735 11.365 247.592 10.8176 246.709 10.0974 246.085 9.20435 245.46 8.31128 245.148 7.19254 245.148 5.84814 245.148 4.63818 245.552 3.53866 246.358 2.54956 247.165 1.56047 248.308 0.691406 249.786-0.0576172 248.884-0.422526 248.173-0.960286 247.655-1.6709 247.136-2.38151 246.877-3.21696 246.877-4.17725 246.877-5.27197 247.184-6.27547 247.799-7.18774 248.413-8.10002 249.498-9.14193 251.054-10.3135 249.671-11.1201 248.62-12.2148 247.9-13.5977 247.179-14.9805 246.819-16.5553 246.819-18.3223 246.819-19.974 247.093-21.4096 247.64-22.6292 248.188-23.8487 248.946-24.857 249.916-25.6541 250.886-26.4511 252.034-27.0465 253.359-27.4402 254.684-27.8339 256.115-28.0308 257.651-28.0308 259.034-28.0308 260.407-27.8675 261.771-27.541L271.969-27.541ZM251.976-18.7832C251.976-16.3825 252.466-14.5291 253.445-13.2231 254.425-11.9172 255.836-11.2642 257.68-11.2642 258.659-11.2642 259.495-11.4514 260.186-11.8259 260.878-12.2004 261.44-12.7142 261.872-13.3672 262.304-14.0202 262.621-14.774 262.822-15.6287 263.024-16.4833 263.125-17.3812 263.125-18.3223 263.125-20.0124 262.885-21.424 262.405-22.5571 261.924-23.6903 261.271-24.5209 260.446-25.0491 259.62-25.5772 258.669-25.8413 257.594-25.8413 255.769-25.8413 254.377-25.2363 253.416-24.0264 252.456-22.8164 251.976-21.0687 251.976-18.7832ZM252.696 0.460938C251.717 1.19076 250.982 1.96379 250.492 2.78003 250.003 3.59627 249.758 4.52295 249.758 5.56006 249.758 7.28857 250.444 8.56095 251.817 9.3772 253.191 10.1934 255.289 10.6016 258.112 10.6016 259.841 10.6016 261.324 10.3711 262.563 9.91016 263.802 9.44922 264.748 8.78662 265.401 7.92236 266.054 7.05811 266.38 6.0498 266.38 4.89746 266.38 4.3597 266.313 3.83634 266.179 3.32739 266.044 2.81844 265.79 2.3623 265.415 1.95898 265.041 1.55566 264.508 1.23397 263.816 0.993896 263.125 0.753825 262.222 0.633789 261.108 0.633789L256.816 0.633789C255.26 0.633789 253.887 0.576172 252.696 0.460938ZM308.265 0 308.265-1.41162C309.225-1.60368 309.941-1.81494 310.411-2.04541 310.882-2.27588 311.232-2.59757 311.463-3.0105 311.693-3.42342 311.808-3.97559 311.808-4.66699 311.808-5.31999 311.732-6.0258 311.578-6.78442 311.424-7.54305 311.203-8.3929 310.915-9.33398L309.849-13.0503 296.425-13.0503 295.445-10.2271C294.946-8.80583 294.619-7.73031 294.466-7.00049 294.312-6.27067 294.235-5.60807 294.235-5.0127 294.235-3.86035 294.528-3.0153 295.114-2.47754 295.7-1.93978 296.598-1.58447 297.807-1.41162L297.807 0 285.506 0 285.506-1.41162C286.582-1.58447 287.518-2.20866 288.315-3.28418 289.112-4.3597 289.885-5.89616 290.634-7.89355L302.647-39.7847 307.199-39.7847 316.994-7.66309C317.455-6.16504 317.863-5.0223 318.218-4.23486 318.574-3.44743 319.001-2.83284 319.5-2.39111 320-1.94938 320.681-1.62288 321.546-1.41162L321.546 0ZM297.202-15.5566 309.244-15.5566 303.771-34.1382ZM352.687 0 341.337 0 341.337-1.41162C342.086-1.64209 342.624-1.84375 342.95-2.0166 343.277-2.18945 343.55-2.42952 343.771-2.73682 343.992-3.04411 344.165-3.51945 344.29-4.16284 344.414-4.80623 344.477-5.78092 344.477-7.08691L344.477-14.6348C344.477-15.9792 344.438-17.1987 344.362-18.2935 344.285-19.3882 344.155-20.2861 343.973-20.9871 343.79-21.6881 343.569-22.2354 343.31-22.6292 343.051-23.0229 342.744-23.359 342.388-23.6375 342.033-23.9159 341.625-24.1368 341.164-24.3 340.703-24.4633 340.098-24.5449 339.349-24.5449 338.6-24.5449 337.889-24.3961 337.217-24.0984 336.545-23.8007 335.805-23.2869 334.999-22.5571 334.192-21.8273 333.606-21.1071 333.242-20.3965 332.877-19.6859 332.694-18.8696 332.694-17.9478L332.694-7.20215C332.694-5.55046 332.771-4.40291 332.925-3.75952 333.078-3.11613 333.371-2.62638 333.803-2.29028 334.235-1.95418 334.941-1.6613 335.921-1.41162L335.921 0 324.628 0 324.628-1.41162C325.377-1.64209 325.91-1.84375 326.227-2.0166 326.544-2.18945 326.812-2.42952 327.033-2.73682 327.254-3.04411 327.427-3.51465 327.552-4.14844 327.677-4.78223 327.739-5.77132 327.739-7.11572L327.739-19.6763C327.739-20.9054 327.72-21.8945 327.681-22.6436 327.643-23.3926 327.509-23.9928 327.278-24.4441 327.048-24.8954 326.697-25.2315 326.227-25.4524 325.756-25.6733 325.089-25.8605 324.224-26.0142L324.224-27.541 330.966-27.8003 332.723-27.8003 332.406-23.1045 332.809-22.9893C334.231-24.4297 335.378-25.4572 336.252-26.0718 337.126-26.6864 338.009-27.1617 338.902-27.4978 339.795-27.8339 340.741-28.002 341.74-28.002 342.777-28.002 343.704-27.8819 344.52-27.6418 345.336-27.4018 346.057-27.0321 346.681-26.5327 347.305-26.0334 347.819-25.414 348.222-24.6746 348.625-23.9351 348.928-23.0469 349.129-22.0098 349.331-20.9727 349.432-19.6571 349.432-18.063L349.432-7.20215C349.432-5.87695 349.47-4.91667 349.547-4.32129 349.624-3.72591 349.758-3.26497 349.951-2.93848 350.143-2.61198 350.421-2.3383 350.786-2.11743 351.151-1.89657 351.785-1.6613 352.687-1.41162ZM368.334 2.3623C367.277 4.74381 366.25 6.67399 365.251 8.15283 364.253 9.63167 363.153 10.7456 361.953 11.4946 360.752 12.2437 359.326 12.6182 357.675 12.6182 356.618 12.6182 355.428 12.4933 354.102 12.2437L354.102 6.53955 356.666 6.53955C356.897 7.32699 357.185 7.87435 357.531 8.18164 357.876 8.48893 358.376 8.64258 359.029 8.64258 359.605 8.64258 360.119 8.53214 360.57 8.31128 361.021 8.09041 361.492 7.7111 361.982 7.17334 362.471 6.63558 363.047 5.80973 363.71 4.6958 364.373 3.58187 365.117 2.17025 365.943 0.460938L357.876-21.2319C357.358-22.634 356.94-23.6134 356.623-24.1704 356.306-24.7274 355.965-25.1499 355.6-25.438 355.235-25.7261 354.679-25.9565 353.93-26.1294L353.93-27.541 365.655-27.541 365.655-26.1294C364.752-25.9181 364.118-25.7117 363.753-25.51 363.388-25.3083 363.119-25.0491 362.947-24.7322 362.774-24.4153 362.687-24.0072 362.687-23.5078 362.687-22.9893 362.75-22.4515 362.875-21.8945 362.999-21.3376 363.196-20.6846 363.465-19.9355L368.593-5.50244 374.355-19.3306C374.681-20.0988 374.936-20.8046 375.118-21.448 375.301-22.0914 375.392-22.6916 375.392-23.2485 375.392-24.0744 375.166-24.6986 374.715-25.1211 374.264-25.5436 373.481-25.8797 372.367-26.1294L372.367-27.541 383.141-27.541 383.141-26.1294C382.392-25.9757 381.816-25.7405 381.413-25.4236 381.01-25.1067 380.606-24.6073 380.203-23.9255 379.8-23.2437 379.319-22.2882 378.763-21.0591ZM383.919-26.1006C384.88-26.2542 385.657-26.5231 386.253-26.9072 386.848-27.2913 387.314-27.7859 387.65-28.3909 387.986-28.9958 388.25-29.7545 388.442-30.6667 388.634-31.579 388.836-32.909 389.047-34.6567L393.138-34.6567 393.138-27.541 402.443-27.541 402.443-24.6313 393.138-24.6313 393.138-11.8115C393.138-9.94857 393.215-8.46492 393.368-7.3606 393.522-6.25627 393.81-5.39201 394.233-4.76782 394.655-4.14364 395.135-3.6971 395.673-3.42822 396.211-3.15934 396.902-3.0249 397.747-3.0249 398.516-3.0249 399.236-3.18335 399.908-3.50024 400.58-3.81714 401.243-4.27327 401.896-4.86865L403.192-3.31299C401.829-1.98779 400.537-1.02751 399.317-0.432129 398.098 0.163249 396.835 0.460938 395.529 0.460938 393.052 0.460938 391.208-0.273682 389.998-1.74292 388.788-3.21216 388.183-5.51204 388.183-8.64258L388.183-24.6313 383.919-24.6313ZM413.202-23.0181 413.317-22.9893C414.815-24.5065 416.001-25.5676 416.875-26.1726 417.749-26.7776 418.613-27.2337 419.468-27.541 420.322-27.8483 421.239-28.002 422.219-28.002 423.275-28.002 424.216-27.8771 425.042-27.6274 425.868-27.3778 426.593-26.9985 427.217-26.4895 427.841-25.9805 428.35-25.3564 428.744-24.6169 429.138-23.8775 429.431-22.9941 429.623-21.9666 429.815-20.939 429.911-19.6379 429.911-18.063L429.911-7.20215C429.911-5.53125 429.983-4.39331 430.127-3.78833 430.271-3.18335 430.53-2.71281 430.905-2.37671 431.279-2.04061 432.033-1.71891 433.166-1.41162L433.166 0 421.816 0 421.816-1.41162C422.565-1.64209 423.102-1.84375 423.429-2.0166 423.755-2.18945 424.029-2.42952 424.25-2.73682 424.471-3.04411 424.644-3.51945 424.768-4.16284 424.893-4.80623 424.956-5.78092 424.956-7.08691L424.956-14.6348C424.956-17.1891 424.826-19.1433 424.567-20.4973 424.308-21.8513 423.799-22.8644 423.04-23.5366 422.281-24.2088 421.22-24.5449 419.857-24.5449 419.088-24.5449 418.397-24.4105 417.782-24.1416 417.168-23.8727 416.457-23.3926 415.651-22.7012 414.844-22.0098 414.234-21.2992 413.821-20.5693 413.408-19.8395 413.202-19.0617 413.202-18.2358L413.202-7.20215C413.202-5.89616 413.235-4.96468 413.303-4.40771 413.37-3.85075 413.499-3.38501 413.692-3.0105 413.884-2.63599 414.177-2.32869 414.57-2.08862 414.964-1.84855 415.574-1.62288 416.4-1.41162L416.4 0 404.991 0 404.991-1.41162C405.836-1.64209 406.441-1.86296 406.806-2.07422 407.171-2.28548 407.454-2.55436 407.656-2.88086 407.858-3.20736 408.007-3.6779 408.103-4.29248 408.199-4.90706 408.247-5.87695 408.247-7.20215L408.247-31.3149C408.247-33.1587 408.232-34.4455 408.204-35.1753 408.175-35.9051 408.098-36.5245 407.973-37.0334 407.848-37.5424 407.675-37.9409 407.454-38.229 407.234-38.5171 406.936-38.7476 406.561-38.9204 406.187-39.0933 405.51-39.2661 404.53-39.439L404.53-40.937 411.473-41.2251 413.202-41.2251ZM446.054-38.834 446.054-33.2451 440.753-33.2451 440.753-38.834ZM437.814-1.41162C438.563-1.64209 439.096-1.84375 439.413-2.0166 439.73-2.18945 439.999-2.42952 440.22-2.73682 440.441-3.04411 440.614-3.51465 440.739-4.14844 440.863-4.78223 440.926-5.77132 440.926-7.11572L440.926-19.6763C440.926-20.9054 440.907-21.8945 440.868-22.6436 440.83-23.3926 440.695-23.9928 440.465-24.4441 440.234-24.8954 439.884-25.2315 439.413-25.4524 438.943-25.6733 438.275-25.8605 437.411-26.0142L437.411-27.541 444.124-27.8003 445.881-27.8003 445.881-7.20215C445.881-5.55046 445.958-4.40291 446.111-3.75952 446.265-3.11613 446.558-2.62638 446.99-2.29028 447.422-1.95418 448.128-1.6613 449.107-1.41162L449.107 0 437.814 0ZM482.207 0 470.857 0 470.857-1.41162C471.606-1.64209 472.144-1.84375 472.47-2.0166 472.797-2.18945 473.07-2.42952 473.291-2.73682 473.512-3.04411 473.685-3.51945 473.81-4.16284 473.934-4.80623 473.997-5.78092 473.997-7.08691L473.997-14.6348C473.997-15.9792 473.958-17.1987 473.882-18.2935 473.805-19.3882 473.675-20.2861 473.493-20.9871 473.31-21.6881 473.089-22.2354 472.83-22.6292 472.571-23.0229 472.264-23.359 471.908-23.6375 471.553-23.9159 471.145-24.1368 470.684-24.3 470.223-24.4633 469.618-24.5449 468.869-24.5449 468.12-24.5449 467.409-24.3961 466.737-24.0984 466.065-23.8007 465.326-23.2869 464.519-22.5571 463.712-21.8273 463.126-21.1071 462.762-20.3965 462.397-19.6859 462.214-18.8696 462.214-17.9478L462.214-7.20215C462.214-5.55046 462.291-4.40291 462.445-3.75952 462.598-3.11613 462.891-2.62638 463.323-2.29028 463.755-1.95418 464.461-1.6613 465.441-1.41162L465.441 0 454.148 0 454.148-1.41162C454.897-1.64209 455.43-1.84375 455.747-2.0166 456.064-2.18945 456.332-2.42952 456.553-2.73682 456.774-3.04411 456.947-3.51465 457.072-4.14844 457.197-4.78223 457.259-5.77132 457.259-7.11572L457.259-19.6763C457.259-20.9054 457.24-21.8945 457.202-22.6436 457.163-23.3926 457.029-23.9928 456.798-24.4441 456.568-24.8954 456.217-25.2315 455.747-25.4524 455.276-25.6733 454.609-25.8605 453.744-26.0142L453.744-27.541 460.486-27.8003 462.243-27.8003 461.926-23.1045 462.329-22.9893C463.751-24.4297 464.898-25.4572 465.772-26.0718 466.646-26.6864 467.529-27.1617 468.422-27.4978 469.315-27.8339 470.261-28.002 471.26-28.002 472.297-28.002 473.224-27.8819 474.04-27.6418 474.856-27.4018 475.577-27.0321 476.201-26.5327 476.825-26.0334 477.339-25.414 477.742-24.6746 478.145-23.9351 478.448-23.0469 478.65-22.0098 478.851-20.9727 478.952-19.6571 478.952-18.063L478.952-7.20215C478.952-5.87695 478.99-4.91667 479.067-4.32129 479.144-3.72591 479.278-3.26497 479.471-2.93848 479.663-2.61198 479.941-2.3383 480.306-2.11743 480.671-1.89657 481.305-1.6613 482.207-1.41162ZM512.656-24.6313 507.326-24.833 507.067-24.5161C507.662-23.9207 508.133-23.1093 508.479-22.0818 508.824-21.0543 508.997-19.9451 508.997-18.7544 508.997-15.6239 508.032-13.2087 506.102-11.509 504.172-9.80933 501.43-8.95947 497.877-8.95947 496.283-8.95947 494.91-9.16113 493.757-9.56445 492.298-8.45052 491.568-7.35579 491.568-6.28027 491.568-5.56966 491.707-5.0319 491.986-4.66699 492.264-4.30208 492.725-4.04281 493.368-3.88916 494.012-3.73551 494.986-3.65869 496.292-3.65869L503.207-3.65869C505.242-3.65869 506.904-3.3418 508.19-2.70801 509.477-2.07422 510.394-1.22437 510.942-0.158447 511.489 0.907471 511.763 2.15104 511.763 3.57227 511.763 5.3776 511.244 6.98608 510.207 8.39771 509.17 9.80933 507.672 10.9089 505.713 11.6963 503.754 12.4837 501.468 12.8774 498.856 12.8774 496.917 12.8774 495.145 12.7622 493.541 12.5317 491.938 12.3013 490.564 11.9124 489.422 11.365 488.279 10.8176 487.395 10.0974 486.771 9.20435 486.147 8.31128 485.835 7.19254 485.835 5.84814 485.835 4.63818 486.238 3.53866 487.045 2.54956 487.852 1.56047 488.994 0.691406 490.473-0.0576172 489.57-0.422526 488.86-0.960286 488.341-1.6709 487.823-2.38151 487.563-3.21696 487.563-4.17725 487.563-5.27197 487.871-6.27547 488.485-7.18774 489.1-8.10002 490.185-9.14193 491.741-10.3135 490.358-11.1201 489.306-12.2148 488.586-13.5977 487.866-14.9805 487.506-16.5553 487.506-18.3223 487.506-19.974 487.78-21.4096 488.327-22.6292 488.874-23.8487 489.633-24.857 490.603-25.6541 491.573-26.4511 492.72-27.0465 494.045-27.4402 495.371-27.8339 496.801-28.0308 498.338-28.0308 499.721-28.0308 501.094-27.8675 502.458-27.541L512.656-27.541ZM492.663-18.7832C492.663-16.3825 493.152-14.5291 494.132-13.2231 495.111-11.9172 496.523-11.2642 498.367-11.2642 499.346-11.2642 500.182-11.4514 500.873-11.8259 501.564-12.2004 502.126-12.7142 502.558-13.3672 502.99-14.0202 503.307-14.774 503.509-15.6287 503.711-16.4833 503.812-17.3812 503.812-18.3223 503.812-20.0124 503.571-21.424 503.091-22.5571 502.611-23.6903 501.958-24.5209 501.132-25.0491 500.306-25.5772 499.356-25.8413 498.28-25.8413 496.456-25.8413 495.063-25.2363 494.103-24.0264 493.143-22.8164 492.663-21.0687 492.663-18.7832ZM493.383 0.460938C492.403 1.19076 491.669 1.96379 491.179 2.78003 490.689 3.59627 490.444 4.52295 490.444 5.56006 490.444 7.28857 491.131 8.56095 492.504 9.3772 493.877 10.1934 495.976 10.6016 498.799 10.6016 500.527 10.6016 502.011 10.3711 503.25 9.91016 504.489 9.44922 505.434 8.78662 506.087 7.92236 506.74 7.05811 507.067 6.0498 507.067 4.89746 507.067 4.3597 507 3.83634 506.865 3.32739 506.731 2.81844 506.476 2.3623 506.102 1.95898 505.727 1.55566 505.194 1.23397 504.503 0.993896 503.812 0.753825 502.909 0.633789 501.795 0.633789L497.502 0.633789C495.947 0.633789 494.574 0.576172 493.383 0.460938Z" fill="#4472C4" transform="translate(39.7381 79)"/></g></g><text fill="#4472C4" font-family="Cambria,Cambria_MSFontService,sans-serif" font-weight="400" font-size="59" transform="translate(385.679 346)">Captioning Anything</text></g></svg>